<?xml version="1.0" encoding="UTF-8" standalone="no"?>
<svg
   xmlns:dc="http://purl.org/dc/elements/1.1/"
   xmlns:cc="http://creativecommons.org/ns#"
   xmlns:rdf="http://www.w3.org/1999/02/22-rdf-syntax-ns#"
   xmlns:svg="http://www.w3.org/2000/svg"
   xmlns="http://www.w3.org/2000/svg"
   id="svg25"
   viewBox="0 0 226.57959 157.00206"
   version="1.2"
   height="2.1805022in"
   width="3.1469092in">
  <defs
     id="defs29" />
  <metadata
     id="metadata2">
    <rdf:RDF>
      <cc:Work
         rdf:about="">
        <dc:format>image/svg+xml</dc:format>
        <dc:type
           rdf:resource="http://purl.org/dc/dcmitype/StillImage" />
        <dc:title></dc:title>
      </cc:Work>
    </rdf:RDF>
  </metadata>
  <path
     id="path4615"
     d="m 17.719588,145.72733 c 0,0 -4.367239,1.69546 -7.575105,1.66375 -2.2452198,0.083 -8.3261463,-1.11514 -8.3261463,-1.11514"
     style="fill:none;stroke:#f6ad00;stroke-width:2.50009394;stroke-linecap:butt;stroke-linejoin:miter;stroke-miterlimit:4;stroke-dasharray:none;stroke-opacity:1" />
  <path
     style="fill:none;stroke:#8e8e8e;stroke-width:1.50005635;stroke-linecap:butt;stroke-linejoin:miter;stroke-miterlimit:4;stroke-dasharray:none;stroke-opacity:1"
     d="m 18.298895,147.26734 c 0,0 -3.921055,1.55695 -7.055123,2.24182 -2.3291209,0.50897 -7.9147939,2.54958 -7.9147939,2.54958"
     id="path4617" />
  <path
     id="path4619"
     d="m 18.782374,147.67803 c 0,0 -3.461964,2.34413 -6.361925,3.46947 -2.222604,0.86249 -6.7360705,5.41946 -6.7360705,5.41946"
     style="fill:none;stroke:#674a18;stroke-width:2.50009391;stroke-linecap:butt;stroke-linejoin:miter;stroke-miterlimit:4;stroke-dasharray:none;stroke-opacity:1" />
  <circle
     transform="rotate(3.8842861)"
     r="0.65690142"
     cy="145.62236"
     cx="11.564516"
     id="path4642"
     style="opacity:0.97699998;fill:none;fill-opacity:1;stroke:none;stroke-width:2.50009394;stroke-miterlimit:4;stroke-dasharray:none;stroke-opacity:1" />
  <circle
     transform="rotate(3.8842861)"
     style="opacity:0.97699998;fill:none;fill-opacity:1;stroke:none;stroke-width:2.50009394;stroke-miterlimit:4;stroke-dasharray:none;stroke-opacity:1"
     id="circle4646"
     cx="13.539851"
     cy="151.43028"
     r="0.65690142" />
  <circle
     transform="rotate(3.8842861)"
     r="0.65690142"
     cy="154.89171"
     cx="16.110693"
     id="circle4648"
     style="opacity:0.97699998;fill:none;fill-opacity:1;stroke:none;stroke-width:2.50009394;stroke-miterlimit:4;stroke-dasharray:none;stroke-opacity:1" />
  <path
     id="path4688"
     d="M 142.29109,91.869141 C 136.18672,101.4433 124.20715,128.51395 100.96296,133.69336 76.598052,139.1225 16.332101,144.6543 16.332101,144.6543 l 0.957962,5.69532 c 0,0 59.504236,-7.03273 84.866107,-12.68402 26.48259,-5.90101 37.11804,-35.77448 42.38619,-44.037109 7.34446,-21.251982 4.1711,-11.962018 -2.25127,-1.75935 z"
     style="color:#000000;font-style:normal;font-variant:normal;font-weight:normal;font-stretch:normal;font-size:medium;line-height:normal;font-family:sans-serif;font-variant-ligatures:normal;font-variant-position:normal;font-variant-caps:normal;font-variant-numeric:normal;font-variant-alternates:normal;font-feature-settings:normal;text-indent:0;text-align:start;text-decoration:none;text-decoration-line:none;text-decoration-style:solid;text-decoration-color:#000000;letter-spacing:normal;word-spacing:normal;text-transform:none;writing-mode:lr-tb;direction:ltr;text-orientation:mixed;dominant-baseline:auto;baseline-shift:baseline;text-anchor:start;white-space:normal;shape-padding:0;clip-rule:nonzero;display:inline;overflow:visible;visibility:visible;opacity:1;isolation:auto;mix-blend-mode:normal;color-interpolation:sRGB;color-interpolation-filters:linearRGB;solid-color:#000000;solid-opacity:1;vector-effect:none;fill:#000000;fill-opacity:1;fill-rule:nonzero;stroke:none;stroke-width:5.0501895;stroke-linecap:butt;stroke-linejoin:miter;stroke-miterlimit:4;stroke-dasharray:none;stroke-dashoffset:0;stroke-opacity:1;color-rendering:auto;image-rendering:auto;shape-rendering:auto;text-rendering:auto;enable-background:accumulate" />
  <g
     style="fill:#e8e8e8;fill-opacity:1;stroke:#6f6f6f;stroke-opacity:1"
     id="g4695">
    <path
       style="opacity:0.97699998;fill:#e8e8e8;fill-opacity:1;stroke:#6f6f6f;stroke-width:1.03051603;stroke-miterlimit:4;stroke-dasharray:none;stroke-opacity:1"
       d="m 143.18168,65.428335 c 0.0296,5.793307 -0.0595,11.594619 0.045,17.38289 0.59054,6.040215 -0.39072,6.912939 1.16409,9.519931 6.72937,11.283314 26.26391,19.624554 32.16947,20.161334 12.37312,1.37049 26.35809,-14.275792 35.64672,-24.711359 2.03946,-2.29127 1.53373,-4.075262 1.53419,-9.216489 V 65.428335 Z"
       id="rect876" />
    <path
       style="opacity:0.97699998;fill:#e8e8e8;fill-opacity:1;stroke:#6f6f6f;stroke-width:1.03051603;stroke-miterlimit:4;stroke-dasharray:none;stroke-opacity:1"
       d="m 178.55897,0.57762725 c -0.002,4e-5 -0.002,0.004 -0.004,0.004 -31.52212,-0.07367 -28.64801,3.59345705 -45.47152,9.21426205 -3.34974,1.1191607 -1.50375,5.9007777 -1.74302,9.0492187 v 14.990789 h 47.28307 v -0.0041 h 47.15013 V 18.841111 c -0.23929,-3.148441 1.60672,-7.930058 -1.74302,-9.0492187 -16.8235,-5.620805 -15.52744,-9.84810705 -45.47152,-9.21426205 z"
       id="rect862" />
    <rect
       style="opacity:0.97699998;fill:#e8e8e8;fill-opacity:1;stroke:#6f6f6f;stroke-width:1.03051603;stroke-miterlimit:4;stroke-dasharray:none;stroke-opacity:1"
       id="rect872"
       width="94.315567"
       height="5.3841562"
       x="131.30077"
       y="61.08704" />
    <rect
       y="33.919724"
       x="205.66394"
       height="26.891851"
       width="3.8934066"
       id="rect887"
       style="opacity:0.97699998;fill:#e8e8e8;fill-opacity:1;stroke:#6f6f6f;stroke-width:1.03051603;stroke-miterlimit:4;stroke-dasharray:none;stroke-opacity:1" />
    <rect
       style="opacity:0.97699998;fill:#e8e8e8;fill-opacity:1;stroke:#6f6f6f;stroke-width:1.03051603;stroke-miterlimit:4;stroke-dasharray:none;stroke-opacity:1"
       id="rect890"
       width="3.8934066"
       height="26.891851"
       x="147.95508"
       y="33.919724" />
  </g>
</svg>
