<?xml version="1.0" encoding="UTF-8" standalone="no"?>
<svg
   xmlns:dc="http://purl.org/dc/elements/1.1/"
   xmlns:cc="http://creativecommons.org/ns#"
   xmlns:rdf="http://www.w3.org/1999/02/22-rdf-syntax-ns#"
   xmlns:svg="http://www.w3.org/2000/svg"
   xmlns="http://www.w3.org/2000/svg"
   id="svg42"
   viewBox="0 0 206.51867 56.576185"
   version="1.2"
   height="0.78579479in"
   width="2.8683047in">
  <defs
     id="defs46" />
  <metadata
     id="metadata2">
    <rdf:RDF>
      <cc:Work
         rdf:about="">
        <dc:format>image/svg+xml</dc:format>
        <dc:type
           rdf:resource="http://purl.org/dc/dcmitype/StillImage" />
        <dc:title></dc:title>
      </cc:Work>
    </rdf:RDF>
  </metadata>
  <path
     style="fill:none;stroke:#000000;stroke-width:2.55000901;stroke-miterlimit:4;stroke-dasharray:none"
     id="path34"
     d="m 202.7725,28.299603 h 3.74617" />
  <path
     style="fill:none;stroke:#ff0000;stroke-width:2.55000901;stroke-miterlimit:4;stroke-dasharray:none"
     id="path36"
     d="M 6.9665,28.299603 H 0" />
  <rect
     style="fill:#8c8c8c"
     height="3.6884999"
     width="1.2295001"
     y="34.656147"
     x="6.0409999"
     id="connector0pin" />
  <g
     style="stroke-width:0.66148001"
     id="g16"
     transform="matrix(-1.2295,0,0,-1.2295,215.75528,56.576789)">
    <path
       style="fill:#1a1a1a"
       id="path10"
       d="m 172.04,44.832 c 0,0.69906 -1.199,1.1846 -2.252,1.1846 l -156.96,-1.1e-5 c -1.491,0 -2.252,-0.39767 -2.252,-1.1846 v -43.648 c 0,-0.62489 0.928,-1.184 2.252,-1.184 h 156.96 c 1.22,0 2.252,0.4713 2.252,1.1846 z" />
    <path
       style="fill:none;stroke:#c9c9c9"
       id="path12"
       d="M 13.079,31.187 12.92995,9.58 c -0.0053,-0.77495 0.425,-1.417 0.945,-1.417 0.52,0 0.942,0.64198 0.942,1.417 l 1,25.626 c 0,0.77897 0.428,1.417 0.945,1.417 0.517,0 0.945,-0.63798 0.945,-1.417 l 1,-19.853 c 0,-0.77897 0.426,-1.418 0.942,-1.418 0.521,0 0.944,0.63898 0.944,1.418 v 15.6" />
    <path
       style="fill:none;stroke:#c9c9c9"
       id="path14"
       d="m 169.05,13.61 v 18.971 c 0,0.77797 0.639,1.416 1.418,1.416 h 1.604" />
  </g>
  <g
     transform="rotate(180,110.88235,26.061987)"
     id="g32">
    <rect
       style="fill:#c9c9c9"
       id="rect18"
       height="19.409"
       width="3.9702001"
       y="16.837"
       x="203.69" />
    <path
       style="fill:#8ffd00"
       id="path20"
       d="m 200.2,46.721 c 0,2.8782 -2.3521,5.2277 -5.228,5.2277 l -164.15,6.2e-5 c -2.8759,0 -5.228,-2.3495 -5.228,-5.2277 v -38.338 c 0,-2.8745 2.3521,-5.2277 5.228,-5.2277 h 164.15 c 2.8759,0 5.228,2.3532 5.228,5.2277 z" />
    <path
       style="fill:#b2b2b2"
       id="path22"
       d="m 200.05,27.228 c 0,10.929 -0.41558,19.786 -0.93075,19.786 -0.51518,0 -0.51518,-39.571 0,-39.571 0.51517,0 0.93075,8.8585 0.93075,19.786" />
    <path
       style="fill:#7c7c7c"
       id="path24"
       d="m 199.71,33.973 c -0.34058,0 -0.34058,-14.622 0,-14.622 l -0.01,0.0012 c 0,0.90122 0.73034,1.6316 1.6328,1.6316 h 0.73772 c 0.90001,0 1.6316,0.73032 1.6316,1.6328 v 8.0852 c 0,0.89753 -0.73158,1.6328 -1.6316,1.6328 h -0.73772 c -0.90248,0 -1.6328,0.73032 -1.6328,1.6304 l 0.01,0.0074 z" />
    <path
       style="opacity:0.35;fill:#ffffff"
       id="path26"
       enable-background="new    "
       d="m 195.12,17.567 c 0,1.7422 -1.8935,3.1549 -4.2296,3.1549 l -156.56,-1.2e-5 c -2.3324,0 -4.2271,-1.2898 -4.2271,-3.0331 v -9.5113 c 0,-1.7435 1.8935,-3.2803 4.2271,-3.2803 h 156.54 c 2.3361,0 4.2296,1.414 4.2296,3.1573 v 9.5125 z" />
    <path
       style="fill:#1a1a1a"
       id="path28"
       d="m 22.592,0.17557 2.4099,1.8713 c 0,0 1.7189,1.9464 3.2165,4.0217 0.89264,1.2369 1.6402,5.5929 2.7419,6.697 1.1054,1.1016 2.6828,1.3402 4.0218,1.3402 h 31.417 c 1.3402,0 2.914,-0.2336 4.0206,-1.3402 1.1041,-1.1041 1.8554,-5.4601 2.7443,-6.697 1.4963,-2.0753 3.2165,-4.0217 3.2165,-4.0217 l 2.4099,-1.8713 z" />
    <path
       style="fill:#1a1a1a"
       id="path30"
       d="m 145.13,0.17557 2.4099,1.8713 c 0,0 1.7189,1.9464 3.2165,4.0217 0.89264,1.2369 1.6414,5.5929 2.7418,6.697 1.1041,1.1016 2.6828,1.3402 4.0218,1.3402 h 31.417 c 1.3402,0 2.9128,-0.2336 4.0218,-1.3402 1.1029,-1.1041 1.8541,-5.4601 2.7431,-6.697 1.4963,-2.0753 3.2152,-4.0217 3.2152,-4.0217 l 2.4111,-1.8713 z" />
  </g>
  <text
     id="text40"
     xml:space="preserve"
     style="font-size:14.75399971px;line-height:1.25;font-family:sans-serif;letter-spacing:0px;word-spacing:0px;stroke-width:0.75"
     word-spacing="0px"
     letter-spacing="0px"
     font-size="14.754px"
     y="33.684978"
     x="37.444542"><tspan
       style="font-size:14.75399971px;font-family:'Liberation Sans';stroke-width:0.75"
       id="tspan38"
       font-size="14.754px"
       y="33.684978"
       x="37.444542">Li-Ion  battery</tspan></text>
</svg>
